<svg id="Layer_1" data-name="Layer 1" xmlns="http://www.w3.org/2000/svg" viewBox="0 0 500 500"><defs><style>.cls-1{fill:#107226;}.cls-2{font-size:67px;fill:#f7aed7;font-family:RogueSans-Light, Rogue Sans;font-weight:300;}</style></defs><circle class="cls-1" cx="252.3" cy="249.19" r="242.69"/><text class="cls-2" transform="translate(177.3 139.23) rotate(-29.09) scale(0.99 1)">a</text><text class="cls-2" transform="translate(200.27 126.44) rotate(-19.03) scale(0.99 1)">r</text><text class="cls-2" transform="translate(221.82 119.04) rotate(-10.32) scale(0.99 1)">t</text><text class="cls-2" transform="matrix(0.99, -0.06, 0.06, 1, 240.35, 115.79)">i</text><text class="cls-2" transform="matrix(0.99, 0.06, -0.06, 1, 252.36, 114.66)">c</text><text class="cls-2" transform="translate(272.97 116.11) rotate(10.5) scale(0.99 1)">l</text><text class="cls-2" transform="translate(284.32 117.57) rotate(18.61) scale(0.99 1)">e</text><text class="cls-2" transform="translate(308.87 125.87) rotate(28.9) scale(0.99 1)">s</text><text class="cls-2" transform="matrix(0.81, 0.58, -0.58, 0.81, 328.05, 136.84)"> </text><text class="cls-2" transform="translate(334.98 141.74) rotate(39.13) scale(0.99 1)"> </text><text class="cls-2" transform="translate(341.57 147.08) rotate(42.79) scale(0.99 1)"> </text><text class="cls-2" transform="translate(347.81 152.82) rotate(46.41) scale(0.99 1)"> </text><text class="cls-2" transform="matrix(0.64, 0.76, -0.77, 0.64, 353.68, 158.96)"> </text><text class="cls-2" transform="matrix(0.59, 0.8, -0.8, 0.59, 359.16, 165.46)"> </text><text class="cls-2" transform="matrix(0.54, 0.83, -0.84, 0.54, 364.22, 172.28)"> </text><text class="cls-2" transform="matrix(0.49, 0.87, -0.87, 0.49, 368.86, 179.42)"> </text><text class="cls-2" transform="translate(373.06 186.83) rotate(64.08) scale(0.99 1)"> </text><text class="cls-2" transform="translate(376.8 194.49) rotate(67.54) scale(0.99 1)"> </text><text class="cls-2" transform="translate(380.08 202.36) rotate(70.97) scale(0.99 1)"> </text><text class="cls-2" transform="translate(382.87 210.4) rotate(74.38) scale(0.99 1)"> </text><text class="cls-2" transform="translate(385.19 218.63) rotate(77.78) scale(0.99 1)"> </text><text class="cls-2" transform="translate(387.02 226.97) rotate(81.18) scale(0.99 1)"> </text><text class="cls-2" transform="matrix(0.09, 0.99, -1, 0.09, 388.35, 235.4)"> </text><text class="cls-2" transform="matrix(0.04, 0.99, -1, 0.04, 389.17, 243.88)"> </text><text class="cls-2" transform="translate(390.1 251.8) rotate(94.73) scale(0.99 1)">a</text><text class="cls-2" transform="matrix(-0.24, 0.96, -0.97, -0.25, 387.9, 278.09)">r</text><text class="cls-2" transform="matrix(-0.37, 0.92, -0.93, -0.38, 382.24, 300.3)">t</text><text class="cls-2" transform="matrix(-0.47, 0.88, -0.88, -0.47, 375.01, 317.82)">i</text><text class="cls-2" transform="translate(369.56 328.7) rotate(124.56) scale(0.99 1)">c</text><text class="cls-2" transform="translate(357.61 345.72) rotate(130.97) scale(0.99 1)">l</text><text class="cls-2" transform="matrix(-0.74, 0.66, -0.66, -0.75, 350.48, 354.81)">e</text><text class="cls-2" transform="matrix(-0.84, 0.53, -0.53, -0.85, 330.97, 372.03)">s</text><text class="cls-2" transform="translate(312 383.49) rotate(154.2) scale(0.99 1)"> </text><text class="cls-2" transform="matrix(-0.92, 0.38, -0.38, -0.93, 304.35, 387.21)"> </text><text class="cls-2" transform="matrix(-0.94, 0.32, -0.32, -0.95, 296.49, 390.46)"> </text><text class="cls-2" transform="matrix(-0.96, 0.26, -0.26, -0.97, 288.46, 393.21)"> </text><text class="cls-2" transform="translate(280.26 395.45) rotate(168.43) scale(0.99 1)"> </text><text class="cls-2" transform="matrix(-0.98, 0.14, -0.14, -0.99, 271.95, 397.18)"> </text><text class="cls-2" transform="translate(263.54 398.37) rotate(175.74) scale(0.99 1)"> </text><text class="cls-2" transform="matrix(-0.99, 0.01, -0.01, -1, 255.1, 399.02)"> </text><text class="cls-2" transform="matrix(-0.99, -0.05, 0.05, -1, 246.63, 399.13)"> </text><text class="cls-2" transform="translate(238.16 398.69) rotate(-173.17) scale(0.99 1)"> </text><text class="cls-2" transform="translate(229.74 397.71) rotate(-169.47) scale(0.99 1)"> </text><text class="cls-2" transform="translate(221.39 396.18) rotate(-165.79) scale(0.99 1)"> </text><text class="cls-2" transform="translate(213.22 394.13) rotate(-162.18) scale(0.99 1)"> </text><text class="cls-2" transform="translate(205.09 391.54) rotate(-158.49) scale(0.99 1)"> </text><text class="cls-2" transform="matrix(-0.9, -0.42, 0.43, -0.9, 197.19, 388.45)"> </text><text class="cls-2" transform="translate(189.52 384.87) rotate(-151.1) scale(0.99 1)"> </text><text class="cls-2" transform="matrix(-0.8, -0.59, 0.59, -0.8, 182.34, 381.72)">a</text><text class="cls-2" transform="matrix(-0.68, -0.72, 0.73, -0.68, 161.24, 366.15)">r</text><text class="cls-2" transform="matrix(-0.56, -0.82, 0.82, -0.57, 145.7, 349.5)">t</text><text class="cls-2" transform="translate(135.12 333.88) rotate(-118.1) scale(0.99 1)">i</text><text class="cls-2" transform="translate(129.12 323.32) rotate(-111.44) scale(0.99 1)">c</text><text class="cls-2" transform="matrix(-0.26, -0.96, 0.97, -0.26, 121.7, 303.92)">l</text><text class="cls-2" transform="translate(118.17 292.92) rotate(-97.41) scale(0.99 1)">e</text><text class="cls-2" transform="translate(114.85 267.07) rotate(-88.03) scale(0.99 1)">s</text></svg>