<svg id="Layer_1" data-name="Layer 1" xmlns="http://www.w3.org/2000/svg" viewBox="0 0 500 500"><defs><style>.cls-1{fill:#f7aed7;}.cls-2{font-size:67px;fill:#107226;font-family:RogueSans-Light, Rogue Sans;font-weight:300;}</style></defs><circle class="cls-1" cx="252.3" cy="249.19" r="242.69"/><text class="cls-2" transform="translate(181.9 129.01) rotate(-29.09) scale(0.99 1)">f</text><text class="cls-2" transform="translate(194.25 121.47) rotate(-21.13) scale(0.99 1)">o</text><text class="cls-2" transform="translate(218.41 112.1) rotate(-11) scale(0.99 1)">r</text><text class="cls-2" transform="matrix(0.99, -0.01, 0.01, 1, 240.41, 107.41)">u</text><text class="cls-2" transform="matrix(0.96, 0.25, -0.25, 0.97, 267.07, 105.98)">m</text><text class="cls-2" transform="translate(307.18 117.69) rotate(24.92) scale(0.99 1)"> </text><text class="cls-2" transform="translate(314.88 121.25) rotate(28.62) scale(0.99 1)"> </text><text class="cls-2" transform="matrix(0.84, 0.53, -0.53, 0.85, 322.34, 125.29)"> </text><text class="cls-2" transform="matrix(0.8, 0.58, -0.59, 0.81, 329.51, 129.8)"> </text><text class="cls-2" transform="translate(336.37 134.76) rotate(39.71) scale(0.99 1)"> </text><text class="cls-2" transform="matrix(0.72, 0.68, -0.69, 0.73, 342.9, 140.15)"> </text><text class="cls-2" transform="matrix(0.68, 0.73, -0.73, 0.68, 349.08, 145.97)"> </text><text class="cls-2" transform="translate(354.9 152.17) rotate(50.62) scale(0.99 1)"> </text><text class="cls-2" transform="translate(360.3 158.72) rotate(54.19) scale(0.99 1)"> </text><text class="cls-2" transform="translate(365.29 165.6) rotate(57.73) scale(0.99 1)"> </text><text class="cls-2" transform="matrix(0.48, 0.87, -0.88, 0.48, 369.85, 172.78)"> </text><text class="cls-2" transform="translate(373.96 180.24) rotate(64.73) scale(0.99 1)"> </text><text class="cls-2" transform="translate(377.61 187.93) rotate(68.19) scale(0.99 1)"> </text><text class="cls-2" transform="matrix(0.31, 0.94, -0.95, 0.31, 380.8, 195.85)"> </text><text class="cls-2" transform="translate(383.51 203.94) rotate(75.06) scale(0.99 1)"> </text><text class="cls-2" transform="matrix(0.2, 0.97, -0.98, 0.2, 385.72, 212.17)"> </text><text class="cls-2" transform="translate(387.45 220.52) rotate(81.86) scale(0.99 1)"> </text><text class="cls-2" transform="matrix(0.08, 0.99, -1, 0.08, 388.68, 228.97)"> </text><text class="cls-2" transform="matrix(0.02, 0.99, -1, 0.02, 389.4, 237.46)"> </text><text class="cls-2" transform="matrix(-0.03, 0.99, -1, -0.03, 389.63, 246.01)"> </text><text class="cls-2" transform="translate(389.56 254.28) rotate(96.89) scale(0.99 1)">f</text><text class="cls-2" transform="translate(388.36 268.76) rotate(104.43) scale(0.99 1)">o</text><text class="cls-2" transform="translate(381.87 294) rotate(113.69) scale(0.99 1)">r</text><text class="cls-2" transform="matrix(-0.55, 0.83, -0.84, -0.55, 373.09, 314.88)">u</text><text class="cls-2" transform="translate(359.26 337.95) rotate(136.78) scale(0.99 1)">m</text><text class="cls-2" transform="translate(327.84 365.68) rotate(146.62) scale(0.99 1)"> </text><text class="cls-2" transform="matrix(-0.86, 0.5, -0.5, -0.87, 320.72, 370.39)"> </text><text class="cls-2" transform="translate(313.36 374.65) rotate(153.53) scale(0.99 1)"> </text><text class="cls-2" transform="matrix(-0.91, 0.39, -0.39, -0.92, 305.74, 378.47)"> </text><text class="cls-2" transform="translate(297.92 381.8) rotate(160.54) scale(0.99 1)"> </text><text class="cls-2" transform="translate(289.92 384.65) rotate(164.09) scale(0.99 1)"> </text><text class="cls-2" transform="translate(281.73 387.01) rotate(167.68) scale(0.99 1)"> </text><text class="cls-2" transform="translate(273.46 388.84) rotate(171.29) scale(0.99 1)"> </text><text class="cls-2" transform="matrix(-0.99, 0.09, -0.09, -1, 265.06, 390.15)"> </text><text class="cls-2" transform="translate(256.63 390.92) rotate(178.6) scale(0.99 1)"> </text><text class="cls-2" transform="translate(248.15 391.15) rotate(-177.7) scale(0.99 1)"> </text><text class="cls-2" transform="matrix(-0.99, -0.1, 0.1, -0.99, 239.67, 390.83)"> </text><text class="cls-2" transform="translate(231.25 389.97) rotate(-170.3) scale(0.99 1)"> </text><text class="cls-2" transform="translate(222.89 388.56) rotate(-166.61) scale(0.99 1)"> </text><text class="cls-2" transform="translate(214.63 386.62) rotate(-162.93) scale(0.99 1)"> </text><text class="cls-2" transform="translate(206.54 384.16) rotate(-159.3) scale(0.99 1)"> </text><text class="cls-2" transform="translate(198.58 381.17) rotate(-155.62) scale(0.99 1)"> </text><text class="cls-2" transform="translate(190.85 377.7) rotate(-151.93) scale(0.99 1)"> </text><text class="cls-2" transform="matrix(-0.83, -0.55, 0.55, -0.83, 183.52, 374.08)">f</text><text class="cls-2" transform="matrix(-0.74, -0.66, 0.67, -0.74, 171.22, 366.67)">o</text><text class="cls-2" transform="translate(151.94 349.38) rotate(-127.8) scale(0.99 1)">r</text><text class="cls-2" transform="translate(137.82 331.79) rotate(-117.49) scale(0.99 1)">u</text><text class="cls-2" transform="matrix(-0.24, -0.96, 0.97, -0.24, 124.43, 308.54)">m</text></svg>