<svg id="Layer_1" data-name="Layer 1" xmlns="http://www.w3.org/2000/svg" viewBox="0 0 1264 768"><defs><style>.cls-1{fill:#ff0;}.cls-2{fill:#f0f;}.cls-3{fill:#5cff2e;}.cls-4{fill:blue;}.cls-5,.cls-6{font-size:61px;font-family:RiftSoft-Regular, Rift Soft;}.cls-6{fill:#fff;}</style></defs><path class="cls-1" d="M632,54V384H962C962,201.75,814.25,54,632,54Z"/><path class="cls-2" d="M962,384H632V714C814.25,714,962,566.25,962,384Z"/><path class="cls-3" d="M302,384H632V54C449.75,54,302,201.75,302,384Z"/><path class="cls-4" d="M632,714V384H302C302,566.25,449.75,714,632,714Z"/><text class="cls-5" transform="matrix(0.83, -0.56, 0.56, 0.83, 490.46, 190.75)">S</text><text class="cls-5" transform="matrix(0.88, -0.47, 0.47, 0.88, 510.66, 177.03)">P</text><text class="cls-5" transform="matrix(0.91, -0.4, 0.4, 0.91, 533.23, 165.22)">I</text><text class="cls-5" transform="matrix(0.94, -0.33, 0.33, 0.94, 543.21, 160.41)">N</text><text class="cls-5" transform="matrix(0.97, -0.25, 0.25, 0.97, 569.54, 151.64)"> </text><text class="cls-5" transform="matrix(0.98, -0.19, 0.19, 0.98, 578.29, 149.15)">T</text><text class="cls-5" transform="matrix(0.99, -0.09, 0.09, 1, 597.93, 145.08)">H</text><text class="cls-5" transform="matrix(1, 0.02, -0.02, 1, 625.01, 142.63)">A</text><text class="cls-5" transform="matrix(0.99, 0.1, -0.1, 1, 647.17, 143.16)">T</text><text class="cls-5" transform="matrix(0.98, 0.17, -0.17, 0.99, 667.01, 145.33)"> </text><text class="cls-5" transform="matrix(0.96, 0.26, -0.26, 0.96, 675.2, 145.91)">W</text><text class="cls-5" transform="matrix(0.92, 0.39, -0.39, 0.92, 711.49, 156.1)">H</text><text class="cls-5" transform="matrix(0.87, 0.49, -0.49, 0.87, 736.49, 166.95)">E</text><text class="cls-5" transform="matrix(0.82, 0.57, -0.57, 0.82, 755.66, 177.66)">E</text><text class="cls-5" transform="matrix(0.77, 0.64, -0.64, 0.77, 773.77, 190.15)">L</text><text class="cls-5" transform="matrix(0.73, 0.68, -0.68, 0.73, 789.12, 203.07)">	</text><text class="cls-5" transform="matrix(0.67, 0.74, -0.74, 0.67, 803.89, 217.53)">	</text><text class="cls-5" transform="matrix(0.53, 0.84, -0.85, 0.53, 825.7, 243.84)">s</text><text class="cls-5" transform="matrix(0.44, 0.89, -0.9, 0.45, 838.8, 264.48)">p</text><text class="cls-5" transform="matrix(0.38, 0.93, -0.93, 0.38, 849.93, 287.4)">i</text><text class="cls-5" transform="matrix(0.3, 0.95, -0.95, 0.3, 854.45, 297.53)">n</text><text class="cls-5" transform="matrix(0.23, 0.97, -0.97, 0.23, 862.53, 324.1)"> </text><text class="cls-5" transform="matrix(0.17, 0.98, -0.99, 0.17, 864.81, 332.94)">t</text><text class="cls-5" transform="matrix(0.07, 1, -1, 0.07, 868.43, 352.7)">h</text><text class="cls-6" transform="matrix(-0.04, 1, -1, -0.04, 870.34, 379.85)">a</text><text class="cls-6" transform="matrix(-0.11, 0.99, -0.99, -0.11, 869.38, 402.12)">t</text><text class="cls-6" transform="matrix(-0.18, 0.98, -0.98, -0.18, 866.97, 421.82)"> </text><text class="cls-6" transform="matrix(-0.27, 0.96, -0.96, -0.27, 866.26, 430.01)">w</text><text class="cls-6" transform="matrix(-0.4, 0.91, -0.92, -0.4, 855.63, 466.24)">h</text><text class="cls-6" transform="matrix(-0.49, 0.87, -0.87, -0.49, 844.56, 491.15)">e</text><text class="cls-6" transform="matrix(-0.57, 0.82, -0.82, -0.57, 833.71, 510.28)">e</text><text class="cls-6" transform="matrix(-0.64, 0.77, -0.77, -0.64, 821.12, 528.33)">l</text><text class="cls-6" transform="matrix(-0.68, 0.73, -0.73, -0.69, 808.16, 543.63)">	</text><text class="cls-6" transform="matrix(-0.74, 0.67, -0.67, -0.74, 793.66, 558.37)">	</text><text class="cls-6" transform="matrix(-0.85, 0.53, -0.53, -0.85, 767.29, 580.15)">s</text><text class="cls-6" transform="matrix(-0.9, 0.44, -0.44, -0.9, 746.65, 593.2)">p</text><text class="cls-6" transform="matrix(-0.93, 0.37, -0.38, -0.93, 723.7, 604.29)">i</text><text class="cls-6" transform="matrix(-0.95, 0.3, -0.3, -0.95, 713.59, 608.78)">n</text><text class="cls-6" transform="matrix(-0.97, 0.23, -0.23, -0.97, 686.97, 616.81)"> </text><text class="cls-6" transform="matrix(-0.99, 0.17, -0.17, -0.99, 678.14, 619.06)">t</text><text class="cls-6" transform="matrix(-1, 0.07, -0.07, -1, 658.36, 622.63)">h</text><text class="cls-6" transform="matrix(-1, -0.04, 0.04, -1, 631.21, 624.46)">a</text><text class="cls-6" transform="matrix(-0.99, -0.16, 0.16, -0.99, 609.26, 623.98)">t</text><text class="cls-6" transform="matrix(-0.98, -0.21, 0.21, -0.98, 589.61, 620.72)"> </text><text class="cls-6" transform="matrix(-0.95, -0.3, 0.3, -0.95, 581.41, 619.73)">w</text><text class="cls-6" transform="matrix(-0.9, -0.43, 0.43, -0.9, 545.54, 608.02)">h</text><text class="cls-6" transform="matrix(-0.85, -0.52, 0.52, -0.85, 520.92, 596.24)">e</text><text class="cls-6" transform="matrix(-0.8, -0.59, 0.59, -0.8, 502.1, 584.86)">e</text><text class="cls-6" transform="matrix(-0.75, -0.66, 0.66, -0.75, 484.39, 571.79)">l</text><text class="cls-6" transform="matrix(-0.71, -0.7, 0.7, -0.71, 469.44, 558.43)">	</text><text class="cls-6" transform="matrix(-0.65, -0.76, 0.76, -0.65, 455.09, 543.55)"> </text><text class="cls-6" transform="matrix(-0.62, -0.78, 0.79, -0.62, 449.02, 536.43)">	</text><text class="cls-6" transform="matrix(-0.51, -0.86, 0.86, -0.51, 434.02, 516.62)">s</text><text class="cls-6" transform="matrix(-0.42, -0.91, 0.91, -0.42, 421.5, 495.63)">p</text><text class="cls-6" transform="matrix(-0.35, -0.94, 0.94, -0.35, 411.04, 472.4)">i</text><text class="cls-6" transform="matrix(-0.27, -0.96, 0.96, -0.27, 406.81, 462.15)">n</text><text class="cls-6" transform="matrix(-0.2, -0.98, 0.98, -0.2, 399.54, 435.36)"> </text><text class="cls-6" transform="matrix(-0.14, -0.99, 0.99, -0.14, 397.54, 426.46)">t</text><text class="cls-6" transform="matrix(-0.04, -1, 1, -0.04, 394.55, 406.62)">h</text><text class="cls-5" transform="matrix(0.07, -1, 1, 0.07, 393.52, 379.41)">a</text><text class="cls-5" transform="matrix(0.15, -0.99, 0.99, 0.15, 395.07, 357.15)">t</text><text class="cls-5" transform="matrix(0.21, -0.98, 0.98, 0.21, 398.27, 337.56)"> </text><text class="cls-5" transform="matrix(0.31, -0.95, 0.95, 0.31, 399.25, 329.39)">w</text><text class="cls-5" transform="matrix(0.43, -0.9, 0.9, 0.43, 411.05, 293.55)">h</text><text class="cls-5" transform="matrix(0.52, -0.85, 0.85, 0.52, 422.9, 268.95)">e</text><text class="cls-5" transform="matrix(0.59, -0.8, 0.8, 0.6, 434.31, 250.15)">e</text><text class="cls-5" transform="matrix(0.66, -0.75, 0.75, 0.66, 447.41, 232.46)">l</text><text class="cls-5" transform="matrix(0.7, -0.71, 0.71, 0.7, 460.78, 217.54)">	</text><text class="cls-5" transform="matrix(0.76, -0.65, 0.65, 0.76, 475.7, 203.18)">	</text></svg>