<svg id="Layer_1" data-name="Layer 1" xmlns="http://www.w3.org/2000/svg" viewBox="0 0 6757 1080"><defs><style>.cls-1{fill:#f5f5f5;}</style></defs><rect class="cls-1" x="3415.19" y="90.17" width="206" height="35.49" rx="17.75"/><rect class="cls-1" x="3716.79" y="245.54" width="195.4" height="50.13" rx="25.06"/><rect class="cls-1" x="4125.81" y="138.28" width="259.87" height="76.27" rx="38.13"/><rect class="cls-1" x="3978.19" y="37.27" width="157" height="40.18" rx="20.09"/><rect class="cls-1" x="4308.77" y="344.65" width="175.42" height="44.36" rx="22.18"/><rect class="cls-1" x="4563.19" y="84.82" width="105" height="40.18" rx="20.09"/><rect class="cls-1" x="4773.98" y="221.43" width="297.21" height="45.98" rx="22.99"/><rect class="cls-1" x="4997.47" y="44.86" width="179.73" height="56.7" rx="28.35"/><rect class="cls-1" x="5053.19" y="382.82" width="191" height="40.18" rx="20.09"/><rect class="cls-1" x="5313.47" y="213.03" width="195.4" height="50.13" rx="25.06"/><rect class="cls-1" x="5633.35" y="90.36" width="206" height="35.49" rx="17.75"/><rect class="cls-1" x="5934.95" y="245.72" width="195.4" height="50.13" rx="25.06"/><rect class="cls-1" x="6343.97" y="138.47" width="259.87" height="76.27" rx="38.13"/><rect class="cls-1" x="6196.35" y="37.46" width="157" height="40.18" rx="20.09"/><rect class="cls-1" x="6702.81" y="295.49" width="108" height="40.18" rx="20.09"/><rect class="cls-1" x="35" y="89.9" width="206" height="35.49" rx="17.75"/><rect class="cls-1" x="336.6" y="245.27" width="195.4" height="50.13" rx="25.06"/><rect class="cls-1" x="745.62" y="138.01" width="259.87" height="76.27" rx="38.13"/><rect class="cls-1" x="-35" y="295.49" width="108" height="40.18" rx="20.09"/><rect class="cls-1" x="598" y="37" width="157" height="40.18" rx="20.09"/><rect class="cls-1" x="928.58" y="344.38" width="175.42" height="44.36" rx="22.18"/><rect class="cls-1" x="1183" y="84.55" width="105" height="40.18" rx="20.09"/><rect class="cls-1" x="1393.79" y="221.16" width="297.21" height="45.98" rx="22.99"/><rect class="cls-1" x="1617.27" y="44.59" width="179.73" height="56.7" rx="28.35"/><rect class="cls-1" x="1673" y="382.55" width="191" height="40.18" rx="20.09"/><rect class="cls-1" x="1933.28" y="212.76" width="195.4" height="50.13" rx="25.06"/><rect class="cls-1" x="2253.16" y="90.09" width="206" height="35.49" rx="17.75"/><rect class="cls-1" x="2554.76" y="245.46" width="195.4" height="50.13" rx="25.06"/><rect class="cls-1" x="2963.78" y="138.2" width="259.87" height="76.27" rx="38.13"/><rect class="cls-1" x="2816.16" y="37.19" width="157" height="40.18" rx="20.09"/><rect class="cls-1" x="3324" y="295.49" width="108" height="40.18" rx="20.09"/></svg>