<svg id="Layer_1" data-name="Layer 1" xmlns="http://www.w3.org/2000/svg" viewBox="0 0 500 500"><defs><style>.cls-1{font-size:121px;fill:#107226;font-family:RogueSans-Light, Rogue Sans;font-weight:300;}</style></defs><text class="cls-1" transform="matrix(0.34, -0.93, 0.94, 0.35, 114.1, 214.97)">c</text><text class="cls-1" transform="matrix(0.61, -0.78, 0.79, 0.62, 128.11, 176.32)">r</text><text class="cls-1" transform="matrix(0.84, -0.52, 0.53, 0.85, 154.39, 141.72)">a</text><text class="cls-1" transform="matrix(0.97, -0.23, 0.23, 0.97, 199.27, 115.9)">f</text><text class="cls-1" transform="matrix(0.99, 0.03, -0.03, 1, 230.71, 108.19)">t</text><text class="cls-1" transform="translate(269.42 110.24) rotate(15.19) scale(0.99 1)">i</text><text class="cls-1" transform="matrix(0.85, 0.51, -0.51, 0.86, 295.22, 115.89)">v</text><text class="cls-1" transform="matrix(0.69, 0.71, -0.72, 0.7, 337.45, 143.09)">i</text><text class="cls-1" transform="matrix(0.5, 0.86, -0.86, 0.5, 356.7, 161.66)">s</text><text class="cls-1" transform="matrix(0.25, 0.96, -0.97, 0.25, 378.4, 200.1)">t</text><text class="cls-1" transform="translate(387.1 238.56) rotate(86.97) scale(0.99 1)"> </text><text class="cls-1" transform="translate(387.9 259.47) rotate(95.27) scale(0.99 1)"> </text><text class="cls-1" transform="matrix(-0.23, 0.97, -0.97, -0.24, 385.67, 280.24)"> </text><text class="cls-1" transform="translate(382 299.5) rotate(116.33) scale(0.99 1)">c</text><text class="cls-1" transform="matrix(-0.7, 0.7, -0.71, -0.71, 365.33, 335.37)">o</text><text class="cls-1" transform="translate(329.58 370.92) rotate(156.95) scale(0.99 1)">a</text><text class="cls-1" transform="matrix(-0.99, 0.11, -0.11, -0.99, 280.72, 389.31)">l</text><text class="cls-1" transform="matrix(-0.99, -0.09, 0.09, -1, 254.3, 391.93)">i</text><text class="cls-1" transform="translate(227.59 389.86) rotate(-161.15) scale(0.99 1)">t</text><text class="cls-1" transform="translate(191.09 376.3) rotate(-147.9) scale(0.99 1)">i</text><text class="cls-1" transform="translate(167.97 363.51) rotate(-132.44) scale(0.99 1)">o</text><text class="cls-1" transform="matrix(-0.38, -0.92, 0.92, -0.38, 133.54, 325.86)">n</text></svg>