<svg id="Layer_1" data-name="Layer 1" xmlns="http://www.w3.org/2000/svg" viewBox="0 0 6757 1080"><defs><style>.cls-1{fill:#f5f5f5;}</style></defs><rect class="cls-1" x="35" y="116" width="206" height="53" rx="26.5"/><rect class="cls-1" x="336.6" y="348" width="195.4" height="74.85" rx="37.43"/><rect class="cls-1" x="745.62" y="187.83" width="259.87" height="113.89" rx="56.95"/><rect class="cls-1" x="-35" y="423" width="108" height="60" rx="30"/><rect class="cls-1" x="598" y="37" width="157" height="60" rx="30"/><rect class="cls-1" x="928.58" y="496" width="175.42" height="66.24" rx="33.12"/><rect class="cls-1" x="1183" y="108" width="105" height="60" rx="30"/><rect class="cls-1" x="1393.79" y="312" width="297.21" height="68.66" rx="34.33"/><rect class="cls-1" x="1617.27" y="48.33" width="179.73" height="84.67" rx="42.34"/><rect class="cls-1" x="1673" y="553" width="191" height="60" rx="30"/><rect class="cls-1" x="1933.28" y="299.46" width="195.4" height="74.85" rx="37.43"/><rect class="cls-1" x="6681" y="423" width="108" height="60" rx="30"/><rect class="cls-1" x="2253.16" y="116.28" width="206" height="53" rx="26.5"/><rect class="cls-1" x="2554.76" y="348.28" width="195.4" height="74.85" rx="37.43"/><rect class="cls-1" x="2963.78" y="188.11" width="259.87" height="113.89" rx="56.95"/><rect class="cls-1" x="2816.16" y="37.28" width="157" height="60" rx="30"/><rect class="cls-1" x="3401.16" y="108.28" width="105" height="60" rx="30"/><rect class="cls-1" x="3404.64" y="108" width="233.21" height="64.78" rx="30"/><rect class="cls-1" x="3694.21" y="348" width="195.4" height="74.85" rx="37.43"/><rect class="cls-1" x="4103.23" y="187.83" width="259.87" height="113.89" rx="56.95"/><rect class="cls-1" x="3322.61" y="419.22" width="108" height="60" rx="30"/><rect class="cls-1" x="3955.61" y="37" width="157" height="60" rx="30"/><rect class="cls-1" x="4286.2" y="496" width="175.42" height="66.24" rx="33.12"/><rect class="cls-1" x="4540.61" y="108" width="105" height="60" rx="30"/><rect class="cls-1" x="4751.4" y="312" width="297.21" height="68.66" rx="34.33"/><rect class="cls-1" x="4974.89" y="48.33" width="179.73" height="84.67" rx="42.34"/><rect class="cls-1" x="5030.61" y="553" width="191" height="60" rx="30"/><rect class="cls-1" x="5290.9" y="299.46" width="195.4" height="74.85" rx="37.43"/><rect class="cls-1" x="5610.77" y="116.28" width="206" height="53" rx="26.5"/><rect class="cls-1" x="5912.37" y="348.28" width="195.4" height="74.85" rx="37.43"/><rect class="cls-1" x="6321.39" y="188.11" width="259.87" height="113.89" rx="56.95"/><rect class="cls-1" x="6173.77" y="37.28" width="157" height="60" rx="30"/></svg>