<svg id="Layer_1" data-name="Layer 1" xmlns="http://www.w3.org/2000/svg" viewBox="0 0 6757 1080"><defs><style>.cls-1{fill:#f5f5f5;}</style></defs><rect class="cls-1" x="3415.19" y="116.4" width="206" height="53" rx="26.5"/><rect class="cls-1" x="3716.79" y="348.4" width="195.4" height="74.85" rx="37.43"/><rect class="cls-1" x="4125.81" y="188.24" width="259.87" height="113.89" rx="56.95"/><rect class="cls-1" x="3978.19" y="37.4" width="157" height="60" rx="30"/><rect class="cls-1" x="4308.77" y="496.4" width="175.42" height="66.24" rx="33.12"/><rect class="cls-1" x="4563.19" y="108.4" width="105" height="60" rx="30"/><rect class="cls-1" x="4773.98" y="312.4" width="297.21" height="68.66" rx="34.33"/><rect class="cls-1" x="4997.47" y="48.73" width="179.73" height="84.67" rx="42.34"/><rect class="cls-1" x="5053.19" y="553.4" width="191" height="60" rx="30"/><rect class="cls-1" x="5313.47" y="299.86" width="195.4" height="74.85" rx="37.43"/><rect class="cls-1" x="5633.35" y="116.68" width="206" height="53" rx="26.5"/><rect class="cls-1" x="5934.95" y="348.68" width="195.4" height="74.85" rx="37.43"/><rect class="cls-1" x="6343.97" y="188.52" width="259.87" height="113.89" rx="56.95"/><rect class="cls-1" x="6196.35" y="37.68" width="157" height="60" rx="30"/><rect class="cls-1" x="6702.81" y="423" width="108" height="60" rx="30"/><rect class="cls-1" x="35" y="116" width="206" height="53" rx="26.5"/><rect class="cls-1" x="336.6" y="348" width="195.4" height="74.85" rx="37.43"/><rect class="cls-1" x="745.62" y="187.83" width="259.87" height="113.89" rx="56.95"/><rect class="cls-1" x="-35" y="423" width="108" height="60" rx="30"/><rect class="cls-1" x="598" y="37" width="157" height="60" rx="30"/><rect class="cls-1" x="928.58" y="496" width="175.42" height="66.24" rx="33.12"/><rect class="cls-1" x="1183" y="108" width="105" height="60" rx="30"/><rect class="cls-1" x="1393.79" y="312" width="297.21" height="68.66" rx="34.33"/><rect class="cls-1" x="1617.27" y="48.33" width="179.73" height="84.67" rx="42.34"/><rect class="cls-1" x="1673" y="553" width="191" height="60" rx="30"/><rect class="cls-1" x="1933.28" y="299.46" width="195.4" height="74.85" rx="37.43"/><rect class="cls-1" x="2253.16" y="116.28" width="206" height="53" rx="26.5"/><rect class="cls-1" x="2554.76" y="348.28" width="195.4" height="74.85" rx="37.43"/><rect class="cls-1" x="2963.78" y="188.11" width="259.87" height="113.89" rx="56.95"/><rect class="cls-1" x="2816.16" y="37.28" width="157" height="60" rx="30"/><rect class="cls-1" x="3324" y="423" width="108" height="60" rx="30"/></svg>